<svg viewBox="0 0 600 400" xmlns="http://www.w3.org/2000/svg">
<g transform="translate(72, 364)">
<g>
<rect fill="burlywood" height="13.343023255813954" stroke="black" width="2.4000000000003876" x="0" y="-13.343023255813954"/>
<rect fill="burlywood" height="1.4825581395348837" stroke="black" width="2.3999999999994186" x="2.4000000000003876" y="-1.4825581395348837"/>
<rect fill="burlywood" height="2.7180232558139537" stroke="black" width="2.4000000000003876" x="4.799999999999806" y="-2.7180232558139537"/>
<rect fill="burlywood" height="0" stroke="black" width="2.3999999999994186" x="7.200000000000194" y="0"/>
<rect fill="burlywood" height="1.9767441860465116" stroke="black" width="2.4000000000003876" x="9.599999999999612" y="-1.9767441860465116"/>
<rect fill="burlywood" height="0" stroke="black" width="2.4000000000003876" x="12" y="0"/>
<rect fill="burlywood" height="0.24709302325581395" stroke="black" width="2.3999999999994177" x="14.400000000000388" y="-0.24709302325581395"/>
<rect fill="burlywood" height="0" stroke="black" width="2.4000000000003894" x="16.799999999999805" y="0"/>
<rect fill="burlywood" height="0" stroke="black" width="2.3999999999994195" x="19.200000000000195" y="0"/>
<rect fill="burlywood" height="0" stroke="black" width="2.400000000000386" x="21.599999999999614" y="0"/>
<rect fill="burlywood" height="0" stroke="black" width="2.400000000000386" x="24" y="0"/>
<rect fill="burlywood" height="0.4941860465116279" stroke="black" width="2.3999999999994195" x="26.400000000000386" y="-0.4941860465116279"/>
<rect fill="burlywood" height="6.424418604651163" stroke="black" width="2.4000000000003894" x="28.799999999999805" y="-6.424418604651163"/>
<rect fill="burlywood" height="0" stroke="black" width="2.399999999999416" x="31.200000000000195" y="0"/>
<rect fill="burlywood" height="0" stroke="black" width="2.4000000000003894" x="33.59999999999961" y="0"/>
<rect fill="burlywood" height="0" stroke="black" width="2.4000000000003894" x="36" y="0"/>
<rect fill="burlywood" height="0" stroke="black" width="2.399999999999416" x="38.40000000000039" y="0"/>
<rect fill="burlywood" height="0" stroke="black" width="2.4000000000003894" x="40.799999999999805" y="0"/>
<rect fill="burlywood" height="0" stroke="black" width="2.399999999999416" x="43.200000000000195" y="0"/>
<rect fill="burlywood" height="0" stroke="black" width="2.4000000000003894" x="45.59999999999961" y="0"/>
<rect fill="burlywood" height="0" stroke="black" width="2.4000000000003894" x="48" y="0"/>
<rect fill="burlywood" height="0" stroke="black" width="2.399999999999416" x="50.40000000000039" y="0"/>
<rect fill="burlywood" height="0" stroke="black" width="2.4000000000003894" x="52.799999999999805" y="0"/>
<rect fill="burlywood" height="0" stroke="black" width="2.399999999999416" x="55.200000000000195" y="0"/>
<rect fill="burlywood" height="6.9186046511627906" stroke="black" width="2.4000000000003894" x="57.59999999999961" y="-6.9186046511627906"/>
<rect fill="burlywood" height="24.21511627906977" stroke="black" width="2.4000000000003894" x="60" y="-24.21511627906977"/>
<rect fill="burlywood" height="0" stroke="black" width="2.399999999999423" x="62.40000000000039" y="0"/>
<rect fill="burlywood" height="4.694767441860465" stroke="black" width="2.400000000000375" x="64.79999999999981" y="-4.694767441860465"/>
<rect fill="burlywood" height="0" stroke="black" width="2.399999999999423" x="67.20000000000019" y="0"/>
<rect fill="burlywood" height="0" stroke="black" width="2.4000000000003894" x="69.59999999999961" y="0"/>
<rect fill="burlywood" height="0" stroke="black" width="2.4000000000003894" x="72" y="0"/>
<rect fill="burlywood" height="0" stroke="black" width="2.399999999999423" x="74.40000000000039" y="0"/>
<rect fill="burlywood" height="0" stroke="black" width="2.400000000000375" x="76.79999999999981" y="0"/>
<rect fill="burlywood" height="0" stroke="black" width="2.399999999999423" x="79.20000000000019" y="0"/>
<rect fill="burlywood" height="0" stroke="black" width="2.4000000000003894" x="81.59999999999961" y="0"/>
<rect fill="burlywood" height="0" stroke="black" width="2.4000000000003894" x="84" y="0"/>
<rect fill="burlywood" height="0" stroke="black" width="2.399999999999423" x="86.40000000000039" y="0"/>
<rect fill="burlywood" height="0" stroke="black" width="2.400000000000375" x="88.79999999999981" y="0"/>
<rect fill="burlywood" height="0" stroke="black" width="2.399999999999423" x="91.20000000000019" y="0"/>
<rect fill="burlywood" height="0" stroke="black" width="2.4000000000003894" x="93.59999999999961" y="0"/>
<rect fill="burlywood" height="0" stroke="black" width="2.4000000000003894" x="96" y="0"/>
<rect fill="burlywood" height="0" stroke="black" width="2.399999999999423" x="98.40000000000039" y="0"/>
<rect fill="burlywood" height="0" stroke="black" width="2.400000000000375" x="100.79999999999981" y="0"/>
<rect fill="burlywood" height="0" stroke="black" width="2.399999999999423" x="103.20000000000019" y="0"/>
<rect fill="burlywood" height="0" stroke="black" width="2.4000000000003894" x="105.59999999999961" y="0"/>
<rect fill="burlywood" height="0.9883720930232558" stroke="black" width="2.4000000000003894" x="108" y="-0.9883720930232558"/>
<rect fill="burlywood" height="0" stroke="black" width="2.399999999999423" x="110.40000000000039" y="0"/>
<rect fill="burlywood" height="0" stroke="black" width="2.400000000000375" x="112.79999999999981" y="0"/>
<rect fill="burlywood" height="18.77906976744186" stroke="black" width="2.399999999999423" x="115.20000000000019" y="-18.77906976744186"/>
<rect fill="burlywood" height="0" stroke="black" width="2.4000000000003894" x="117.59999999999961" y="0"/>
<rect fill="burlywood" height="0" stroke="black" width="2.4000000000003894" x="120" y="0"/>
<rect fill="burlywood" height="0.7412790697674418" stroke="black" width="2.399999999999423" x="122.40000000000039" y="-0.7412790697674418"/>
<rect fill="burlywood" height="2.2238372093023258" stroke="black" width="2.400000000000375" x="124.79999999999981" y="-2.2238372093023258"/>
<rect fill="burlywood" height="0.4941860465116279" stroke="black" width="2.3999999999994373" x="127.20000000000019" y="-0.4941860465116279"/>
<rect fill="burlywood" height="0.24709302325581395" stroke="black" width="2.400000000000375" x="129.59999999999962" y="-0.24709302325581395"/>
<rect fill="burlywood" height="0" stroke="black" width="2.400000000000375" x="132" y="0"/>
<rect fill="burlywood" height="0" stroke="black" width="2.3999999999994373" x="134.40000000000038" y="0"/>
<rect fill="burlywood" height="0" stroke="black" width="2.400000000000375" x="136.7999999999998" y="0"/>
<rect fill="burlywood" height="0" stroke="black" width="2.3999999999994373" x="139.2000000000002" y="0"/>
<rect fill="burlywood" height="0" stroke="black" width="2.400000000000375" x="141.59999999999962" y="0"/>
<rect fill="burlywood" height="0" stroke="black" width="2.400000000000375" x="144" y="0"/>
<rect fill="burlywood" height="0" stroke="black" width="2.3999999999994373" x="146.40000000000038" y="0"/>
<rect fill="burlywood" height="0" stroke="black" width="2.400000000000375" x="148.7999999999998" y="0"/>
<rect fill="burlywood" height="0" stroke="black" width="2.3999999999994373" x="151.2000000000002" y="0"/>
<rect fill="burlywood" height="0" stroke="black" width="2.400000000000375" x="153.59999999999962" y="0"/>
<rect fill="burlywood" height="0" stroke="black" width="2.400000000000375" x="156" y="0"/>
<rect fill="burlywood" height="0" stroke="black" width="2.3999999999994373" x="158.40000000000038" y="0"/>
<rect fill="burlywood" height="0" stroke="black" width="2.400000000000375" x="160.7999999999998" y="0"/>
<rect fill="burlywood" height="3.7063953488372094" stroke="black" width="2.3999999999994373" x="163.2000000000002" y="-3.7063953488372094"/>
<rect fill="burlywood" height="0" stroke="black" width="2.400000000000375" x="165.59999999999962" y="0"/>
<rect fill="burlywood" height="0.24709302325581395" stroke="black" width="2.400000000000375" x="168" y="-0.24709302325581395"/>
<rect fill="burlywood" height="0.4941860465116279" stroke="black" width="2.3999999999994373" x="170.40000000000038" y="-0.4941860465116279"/>
<rect fill="burlywood" height="0" stroke="black" width="2.400000000000375" x="172.7999999999998" y="0"/>
<rect fill="burlywood" height="0" stroke="black" width="2.3999999999994373" x="175.2000000000002" y="0"/>
<rect fill="burlywood" height="9.142441860465116" stroke="black" width="2.400000000000375" x="177.59999999999962" y="-9.142441860465116"/>
<rect fill="burlywood" height="4.941860465116279" stroke="black" width="2.400000000000375" x="180" y="-4.941860465116279"/>
<rect fill="burlywood" height="1.4825581395348837" stroke="black" width="2.3999999999994373" x="182.40000000000038" y="-1.4825581395348837"/>
<rect fill="burlywood" height="26.191860465116278" stroke="black" width="2.400000000000375" x="184.7999999999998" y="-26.191860465116278"/>
<rect fill="burlywood" height="52.63081395348837" stroke="black" width="2.3999999999994373" x="187.2000000000002" y="-52.63081395348837"/>
<rect fill="burlywood" height="29.651162790697676" stroke="black" width="2.400000000000375" x="189.59999999999962" y="-29.651162790697676"/>
<rect fill="burlywood" height="13.590116279069768" stroke="black" width="2.400000000000375" x="192" y="-13.590116279069768"/>
<rect fill="burlywood" height="2.9651162790697674" stroke="black" width="2.3999999999994373" x="194.40000000000038" y="-2.9651162790697674"/>
<rect fill="burlywood" height="70.42151162790698" stroke="black" width="2.400000000000375" x="196.7999999999998" y="-70.42151162790698"/>
<rect fill="burlywood" height="27.921511627906977" stroke="black" width="2.3999999999994373" x="199.2000000000002" y="-27.921511627906977"/>
<rect fill="burlywood" height="47.93604651162791" stroke="black" width="2.400000000000375" x="201.59999999999962" y="-47.93604651162791"/>
<rect fill="burlywood" height="10.130813953488373" stroke="black" width="2.400000000000375" x="204" y="-10.130813953488373"/>
<rect fill="burlywood" height="60.53779069767442" stroke="black" width="2.3999999999994373" x="206.40000000000038" y="-60.53779069767442"/>
<rect fill="burlywood" height="5.683139534883721" stroke="black" width="2.400000000000375" x="208.7999999999998" y="-5.683139534883721"/>
<rect fill="burlywood" height="74.12790697674419" stroke="black" width="2.3999999999994373" x="211.2000000000002" y="-74.12790697674419"/>
<rect fill="burlywood" height="66.71511627906976" stroke="black" width="2.400000000000375" x="213.59999999999962" y="-66.71511627906976"/>
<rect fill="burlywood" height="146.52616279069767" stroke="black" width="2.400000000000375" x="216" y="-146.52616279069767"/>
<rect fill="burlywood" height="114.40406976744185" stroke="black" width="2.3999999999994373" x="218.40000000000038" y="-114.40406976744185"/>
<rect fill="burlywood" height="60.53779069767442" stroke="black" width="2.400000000000375" x="220.7999999999998" y="-60.53779069767442"/>
<rect fill="burlywood" height="111.43895348837209" stroke="black" width="2.3999999999994373" x="223.2000000000002" y="-111.43895348837209"/>
<rect fill="burlywood" height="148.99709302325581" stroke="black" width="2.400000000000375" x="225.59999999999962" y="-148.99709302325581"/>
<rect fill="burlywood" height="119.09883720930233" stroke="black" width="2.400000000000375" x="228" y="-119.09883720930233"/>
<rect fill="burlywood" height="171.7296511627907" stroke="black" width="2.3999999999994373" x="230.40000000000038" y="-171.7296511627907"/>
<rect fill="burlywood" height="106.49709302325581" stroke="black" width="2.400000000000375" x="232.7999999999998" y="-106.49709302325581"/>
<rect fill="burlywood" height="61.27906976744186" stroke="black" width="2.3999999999994373" x="235.2000000000002" y="-61.27906976744186"/>
<rect fill="burlywood" height="72.15116279069767" stroke="black" width="2.400000000000375" x="237.59999999999962" y="-72.15116279069767"/>
<rect fill="burlywood" height="91.67151162790698" stroke="black" width="2.400000000000375" x="240" y="-91.67151162790698"/>
<rect fill="burlywood" height="93.40116279069767" stroke="black" width="2.3999999999994373" x="242.40000000000038" y="-93.40116279069767"/>
<rect fill="burlywood" height="145.5377906976744" stroke="black" width="2.400000000000375" x="244.7999999999998" y="-145.5377906976744"/>
<rect fill="burlywood" height="253.76453488372093" stroke="black" width="2.3999999999994373" x="247.2000000000002" y="-253.76453488372093"/>
<rect fill="burlywood" height="158.13953488372093" stroke="black" width="2.400000000000375" x="249.59999999999962" y="-158.13953488372093"/>
<rect fill="burlywood" height="104.27325581395348" stroke="black" width="2.400000000000375" x="252" y="-104.27325581395348"/>
<rect fill="burlywood" height="176.91860465116278" stroke="black" width="2.399999999999409" x="254.40000000000038" y="-176.91860465116278"/>
<rect fill="burlywood" height="186.3081395348837" stroke="black" width="2.400000000000432" x="256.7999999999998" y="-186.3081395348837"/>
<rect fill="burlywood" height="262.90697674418607" stroke="black" width="2.399999999999409" x="259.2000000000002" y="-262.90697674418607"/>
<rect fill="burlywood" height="132.4418604651163" stroke="black" width="2.400000000000375" x="261.5999999999996" y="-132.4418604651163"/>
<rect fill="burlywood" height="215.7122093023256" stroke="black" width="2.400000000000375" x="264" y="-215.7122093023256"/>
<rect fill="burlywood" height="223.86627906976744" stroke="black" width="2.399999999999409" x="266.4000000000004" y="-223.86627906976744"/>
<rect fill="burlywood" height="217.4418604651163" stroke="black" width="2.400000000000432" x="268.7999999999998" y="-217.4418604651163"/>
<rect fill="burlywood" height="144.54941860465115" stroke="black" width="2.399999999999409" x="271.2000000000002" y="-144.54941860465115"/>
<rect fill="burlywood" height="205.58139534883722" stroke="black" width="2.400000000000375" x="273.5999999999996" y="-205.58139534883722"/>
<rect fill="burlywood" height="129.97093023255815" stroke="black" width="2.400000000000375" x="276" y="-129.97093023255815"/>
<rect fill="burlywood" height="163.32848837209303" stroke="black" width="2.399999999999409" x="278.4000000000004" y="-163.32848837209303"/>
<rect fill="burlywood" height="100.81395348837209" stroke="black" width="2.400000000000432" x="280.7999999999998" y="-100.81395348837209"/>
<rect fill="burlywood" height="130.46511627906978" stroke="black" width="2.399999999999409" x="283.2000000000002" y="-130.46511627906978"/>
<rect fill="burlywood" height="168.02325581395348" stroke="black" width="2.400000000000375" x="285.5999999999996" y="-168.02325581395348"/>
<rect fill="burlywood" height="123.29941860465117" stroke="black" width="2.400000000000375" x="288" y="-123.29941860465117"/>
<rect fill="burlywood" height="166.5406976744186" stroke="black" width="2.399999999999409" x="290.4000000000004" y="-166.5406976744186"/>
<rect fill="burlywood" height="95.87209302325581" stroke="black" width="2.400000000000432" x="292.7999999999998" y="-95.87209302325581"/>
<rect fill="burlywood" height="112.42732558139535" stroke="black" width="2.399999999999409" x="295.2000000000002" y="-112.42732558139535"/>
<rect fill="burlywood" height="186.80232558139534" stroke="black" width="2.400000000000375" x="297.5999999999996" y="-186.80232558139534"/>
<rect fill="burlywood" height="187.04941860465115" stroke="black" width="2.400000000000375" x="300" y="-187.04941860465115"/>
<rect fill="burlywood" height="138.125" stroke="black" width="2.399999999999409" x="302.4000000000004" y="-138.125"/>
<rect fill="burlywood" height="212.74709302325581" stroke="black" width="2.400000000000432" x="304.7999999999998" y="-212.74709302325581"/>
<rect fill="burlywood" height="340" stroke="black" width="2.399999999999409" x="307.2000000000002" y="-340"/>
<rect fill="burlywood" height="159.62209302325581" stroke="black" width="2.400000000000375" x="309.5999999999996" y="-159.62209302325581"/>
<rect fill="burlywood" height="191.74418604651163" stroke="black" width="2.400000000000375" x="312" y="-191.74418604651163"/>
<rect fill="burlywood" height="138.61918604651163" stroke="black" width="2.399999999999409" x="314.4000000000004" y="-138.61918604651163"/>
<rect fill="burlywood" height="149.24418604651163" stroke="black" width="2.400000000000432" x="316.7999999999998" y="-149.24418604651163"/>
<rect fill="burlywood" height="206.8168604651163" stroke="black" width="2.399999999999409" x="319.2000000000002" y="-206.8168604651163"/>
<rect fill="burlywood" height="237.2093023255814" stroke="black" width="2.400000000000375" x="321.5999999999996" y="-237.2093023255814"/>
<rect fill="burlywood" height="239.92732558139534" stroke="black" width="2.400000000000375" x="324" y="-239.92732558139534"/>
<rect fill="burlywood" height="148.75" stroke="black" width="2.399999999999409" x="326.4000000000004" y="-148.75"/>
<rect fill="burlywood" height="155.42151162790697" stroke="black" width="2.400000000000432" x="328.7999999999998" y="-155.42151162790697"/>
<rect fill="burlywood" height="242.39825581395348" stroke="black" width="2.399999999999409" x="331.2000000000002" y="-242.39825581395348"/>
<rect fill="burlywood" height="115.1453488372093" stroke="black" width="2.400000000000375" x="333.5999999999996" y="-115.1453488372093"/>
<rect fill="burlywood" height="87.96511627906976" stroke="black" width="2.400000000000375" x="336" y="-87.96511627906976"/>
<rect fill="burlywood" height="116.38081395348837" stroke="black" width="2.399999999999409" x="338.4000000000004" y="-116.38081395348837"/>
<rect fill="burlywood" height="71.16279069767442" stroke="black" width="2.400000000000432" x="340.7999999999998" y="-71.16279069767442"/>
<rect fill="burlywood" height="181.86046511627907" stroke="black" width="2.399999999999409" x="343.2000000000002" y="-181.86046511627907"/>
<rect fill="burlywood" height="132.19476744186048" stroke="black" width="2.400000000000375" x="345.5999999999996" y="-132.19476744186048"/>
<rect fill="burlywood" height="139.8546511627907" stroke="black" width="2.400000000000375" x="348" y="-139.8546511627907"/>
<rect fill="burlywood" height="50.901162790697676" stroke="black" width="2.399999999999409" x="350.4000000000004" y="-50.901162790697676"/>
<rect fill="burlywood" height="52.877906976744185" stroke="black" width="2.400000000000432" x="352.7999999999998" y="-52.877906976744185"/>
<rect fill="burlywood" height="88.21220930232558" stroke="black" width="2.399999999999409" x="355.2000000000002" y="-88.21220930232558"/>
<rect fill="burlywood" height="36.81686046511628" stroke="black" width="2.400000000000375" x="357.5999999999996" y="-36.81686046511628"/>
<rect fill="burlywood" height="56.09011627906977" stroke="black" width="2.400000000000375" x="360" y="-56.09011627906977"/>
<rect fill="burlywood" height="55.348837209302324" stroke="black" width="2.399999999999409" x="362.4000000000004" y="-55.348837209302324"/>
<rect fill="burlywood" height="32.36918604651163" stroke="black" width="2.400000000000432" x="364.7999999999998" y="-32.36918604651163"/>
<rect fill="burlywood" height="73.13953488372093" stroke="black" width="2.399999999999409" x="367.2000000000002" y="-73.13953488372093"/>
<rect fill="burlywood" height="37.55813953488372" stroke="black" width="2.400000000000375" x="369.5999999999996" y="-37.55813953488372"/>
<rect fill="burlywood" height="204.84011627906978" stroke="black" width="2.400000000000375" x="372" y="-204.84011627906978"/>
<rect fill="burlywood" height="65.4796511627907" stroke="black" width="2.399999999999409" x="374.4000000000004" y="-65.4796511627907"/>
<rect fill="burlywood" height="82.03488372093024" stroke="black" width="2.400000000000432" x="376.7999999999998" y="-82.03488372093024"/>
<rect fill="burlywood" height="119.09883720930233" stroke="black" width="2.399999999999409" x="379.2000000000002" y="-119.09883720930233"/>
<rect fill="burlywood" height="126.51162790697674" stroke="black" width="2.400000000000375" x="381.5999999999996" y="-126.51162790697674"/>
<rect fill="burlywood" height="30.886627906976745" stroke="black" width="2.400000000000375" x="384" y="-30.886627906976745"/>
<rect fill="burlywood" height="97.84883720930233" stroke="black" width="2.399999999999409" x="386.4000000000004" y="-97.84883720930233"/>
<rect fill="burlywood" height="29.898255813953487" stroke="black" width="2.400000000000432" x="388.7999999999998" y="-29.898255813953487"/>
<rect fill="burlywood" height="5.436046511627907" stroke="black" width="2.399999999999409" x="391.2000000000002" y="-5.436046511627907"/>
<rect fill="burlywood" height="2.9651162790697674" stroke="black" width="2.400000000000375" x="393.5999999999996" y="-2.9651162790697674"/>
<rect fill="burlywood" height="28.90988372093023" stroke="black" width="2.400000000000375" x="396" y="-28.90988372093023"/>
<rect fill="burlywood" height="15.319767441860465" stroke="black" width="2.399999999999409" x="398.4000000000004" y="-15.319767441860465"/>
<rect fill="burlywood" height="14.084302325581396" stroke="black" width="2.400000000000432" x="400.7999999999998" y="-14.084302325581396"/>
<rect fill="burlywood" height="12.601744186046512" stroke="black" width="2.399999999999409" x="403.2000000000002" y="-12.601744186046512"/>
<rect fill="burlywood" height="19.026162790697676" stroke="black" width="2.400000000000375" x="405.5999999999996" y="-19.026162790697676"/>
<rect fill="burlywood" height="15.07267441860465" stroke="black" width="2.400000000000375" x="408" y="-15.07267441860465"/>
<rect fill="burlywood" height="14.825581395348838" stroke="black" width="2.399999999999409" x="410.4000000000004" y="-14.825581395348838"/>
<rect fill="burlywood" height="32.616279069767444" stroke="black" width="2.400000000000432" x="412.7999999999998" y="-32.616279069767444"/>
<rect fill="burlywood" height="26.438953488372093" stroke="black" width="2.399999999999409" x="415.2000000000002" y="-26.438953488372093"/>
<rect fill="burlywood" height="38.299418604651166" stroke="black" width="2.400000000000375" x="417.5999999999996" y="-38.299418604651166"/>
<rect fill="burlywood" height="33.604651162790695" stroke="black" width="2.400000000000375" x="420" y="-33.604651162790695"/>
<rect fill="burlywood" height="41.01744186046512" stroke="black" width="2.399999999999409" x="422.4000000000004" y="-41.01744186046512"/>
<rect fill="burlywood" height="118.6046511627907" stroke="black" width="2.400000000000432" x="424.7999999999998" y="-118.6046511627907"/>
<rect fill="burlywood" height="70.6686046511628" stroke="black" width="2.399999999999409" x="427.2000000000002" y="-70.6686046511628"/>
<rect fill="burlywood" height="67.20930232558139" stroke="black" width="2.400000000000375" x="429.5999999999996" y="-67.20930232558139"/>
<rect fill="burlywood" height="39.28779069767442" stroke="black" width="2.400000000000375" x="432" y="-39.28779069767442"/>
<rect fill="burlywood" height="10.130813953488373" stroke="black" width="2.399999999999409" x="434.4000000000004" y="-10.130813953488373"/>
<rect fill="burlywood" height="8.648255813953488" stroke="black" width="2.400000000000432" x="436.7999999999998" y="-8.648255813953488"/>
<rect fill="burlywood" height="25.944767441860463" stroke="black" width="2.399999999999409" x="439.2000000000002" y="-25.944767441860463"/>
<rect fill="burlywood" height="11.119186046511627" stroke="black" width="2.400000000000375" x="441.5999999999996" y="-11.119186046511627"/>
<rect fill="burlywood" height="10.130813953488373" stroke="black" width="2.400000000000375" x="444" y="-10.130813953488373"/>
<rect fill="burlywood" height="4.694767441860465" stroke="black" width="2.399999999999409" x="446.4000000000004" y="-4.694767441860465"/>
<rect fill="burlywood" height="23.968023255813954" stroke="black" width="2.400000000000432" x="448.7999999999998" y="-23.968023255813954"/>
<rect fill="burlywood" height="8.648255813953488" stroke="black" width="2.399999999999409" x="451.2000000000002" y="-8.648255813953488"/>
<rect fill="burlywood" height="4.4476744186046515" stroke="black" width="2.400000000000375" x="453.5999999999996" y="-4.4476744186046515"/>
<rect fill="burlywood" height="0" stroke="black" width="2.400000000000375" x="456" y="0"/>
<rect fill="burlywood" height="0" stroke="black" width="2.399999999999409" x="458.4000000000004" y="0"/>
<rect fill="burlywood" height="3.953488372093023" stroke="black" width="2.400000000000432" x="460.7999999999998" y="-3.953488372093023"/>
<rect fill="burlywood" height="1.7296511627906976" stroke="black" width="2.399999999999409" x="463.2000000000002" y="-1.7296511627906976"/>
<rect fill="burlywood" height="22.238372093023255" stroke="black" width="2.400000000000375" x="465.5999999999996" y="-22.238372093023255"/>
<rect fill="burlywood" height="2.7180232558139537" stroke="black" width="2.400000000000375" x="468" y="-2.7180232558139537"/>
<rect fill="burlywood" height="18.28488372093023" stroke="black" width="2.399999999999409" x="470.4000000000004" y="-18.28488372093023"/>
<rect fill="burlywood" height="20.50872093023256" stroke="black" width="2.400000000000432" x="472.7999999999998" y="-20.50872093023256"/>
<rect fill="burlywood" height="31.38081395348837" stroke="black" width="2.399999999999409" x="475.2000000000002" y="-31.38081395348837"/>
<rect fill="burlywood" height="183.09593023255815" stroke="black" width="2.400000000000375" x="477.5999999999996" y="-183.09593023255815"/>
</g>
<g>
<g>
<line stroke="black" stroke-width="1" x1="0" x2="0" y1="0" y2="10"/>
<line stroke="black" stroke-width="1" x1="81.24270534654435" x2="81.24270534654435" y1="0" y2="10"/>
<line stroke="black" stroke-width="1" x1="162.4854106930887" x2="162.4854106930887" y1="0" y2="10"/>
<line stroke="black" stroke-width="1" x1="243.72811603963308" x2="243.72811603963308" y1="0" y2="10"/>
<line stroke="black" stroke-width="1" x1="324.9708213861774" x2="324.9708213861774" y1="0" y2="10"/>
<line stroke="black" stroke-width="1" x1="406.2135267327218" x2="406.2135267327218" y1="0" y2="10"/>
</g>
<line stroke="black" stroke-width="1" x1="0" x2="480" y1="0" y2="0"/>
<g>
<text font-size="12" text-anchor="middle" x="0" y="20">
1492380158
</text>
<text font-size="12" text-anchor="middle" x="81.24270534654435" y="20">
1512380158
</text>
<text font-size="12" text-anchor="middle" x="162.4854106930887" y="20">
1532380158
</text>
<text font-size="12" text-anchor="middle" x="243.72811603963308" y="20">
1552380158
</text>
<text font-size="12" text-anchor="middle" x="324.9708213861774" y="20">
1572380158
</text>
<text font-size="12" text-anchor="middle" x="406.2135267327218" y="20">
1592380158
</text>
</g>
<text font-size="12" text-anchor="middle" x="240" y="30">

</text>
</g>
<g>
<g>
<line stroke="black" stroke-width="1" x1="0" x2="-10" y1="0" y2="0"/>
<line stroke="black" stroke-width="1" x1="0" x2="-10" y1="-98.83720930232558" y2="-98.83720930232558"/>
<line stroke="black" stroke-width="1" x1="0" x2="-10" y1="-197.67441860465115" y2="-197.67441860465115"/>
<line stroke="black" stroke-width="1" x1="0" x2="-10" y1="-296.51162790697674" y2="-296.51162790697674"/>
</g>
<line stroke="black" stroke-width="1" x1="0" x2="0" y1="0" y2="-340"/>
<g>
<text dominant-baseline="middle" font-size="12" text-anchor="end" x="-15" y="0">
0
</text>
<text dominant-baseline="middle" font-size="12" text-anchor="end" x="-15" y="-98.83720930232558">
400
</text>
<text dominant-baseline="middle" font-size="12" text-anchor="end" x="-15" y="-197.67441860465115">
800
</text>
<text dominant-baseline="middle" font-size="12" text-anchor="end" x="-15" y="-296.51162790697674">
1200
</text>
</g>
<text font-size="12" text-anchor="middle" transform="rotate(-90 -48 -170)" x="-48" y="-182">

</text>
</g>
</g>
</svg>