<svg viewBox="0 0 600 400" xmlns="http://www.w3.org/2000/svg">
<g transform="translate(72, 364)">
<g>
<rect fill="burlywood" height="32.38095238095238" stroke="black" width="2.399999999998174" x="0" y="-32.38095238095238"/>
<rect fill="burlywood" height="32.38095238095238" stroke="black" width="2.4000000000019788" x="2.399999999998174" y="-32.38095238095238"/>
<rect fill="burlywood" height="10.793650793650794" stroke="black" width="2.3999999999981734" x="4.800000000000153" y="-10.793650793650794"/>
<rect fill="burlywood" height="43.17460317460318" stroke="black" width="2.400000000001979" x="7.199999999998326" y="-43.17460317460318"/>
<rect fill="burlywood" height="26.984126984126984" stroke="black" width="2.3999999999981725" x="9.600000000000305" y="-26.984126984126984"/>
<rect fill="burlywood" height="32.38095238095238" stroke="black" width="2.400000000001979" x="11.999999999998478" y="-32.38095238095238"/>
<rect fill="burlywood" height="21.58730158730159" stroke="black" width="2.3999999999981725" x="14.400000000000457" y="-21.58730158730159"/>
<rect fill="burlywood" height="16.19047619047619" stroke="black" width="2.400000000001981" x="16.79999999999863" y="-16.19047619047619"/>
<rect fill="burlywood" height="37.77777777777778" stroke="black" width="2.3999999999981725" x="19.20000000000061" y="-37.77777777777778"/>
<rect fill="burlywood" height="21.58730158730159" stroke="black" width="2.4000000000019774" x="21.599999999998783" y="-21.58730158730159"/>
<rect fill="burlywood" height="10.793650793650794" stroke="black" width="2.399999999998176" x="24.00000000000076" y="-10.793650793650794"/>
<rect fill="burlywood" height="32.38095238095238" stroke="black" width="2.4000000000019774" x="26.399999999998936" y="-32.38095238095238"/>
<rect fill="burlywood" height="10.793650793650794" stroke="black" width="2.3999999999981725" x="28.800000000000914" y="-10.793650793650794"/>
<rect fill="burlywood" height="16.19047619047619" stroke="black" width="2.400000000001981" x="31.199999999999086" y="-16.19047619047619"/>
<rect fill="burlywood" height="16.19047619047619" stroke="black" width="2.3999999999981725" x="33.60000000000107" y="-16.19047619047619"/>
<rect fill="burlywood" height="10.793650793650794" stroke="black" width="2.400000000001981" x="35.99999999999924" y="-10.793650793650794"/>
<rect fill="burlywood" height="48.57142857142857" stroke="black" width="2.3999999999981725" x="38.40000000000122" y="-48.57142857142857"/>
<rect fill="burlywood" height="43.17460317460318" stroke="black" width="2.400000000001974" x="40.79999999999939" y="-43.17460317460318"/>
<rect fill="burlywood" height="0" stroke="black" width="2.3999999999981796" x="43.20000000000137" y="0"/>
<rect fill="burlywood" height="0" stroke="black" width="2.400000000001974" x="45.59999999999955" y="0"/>
<rect fill="burlywood" height="0" stroke="black" width="2.3999999999981725" x="48.00000000000152" y="0"/>
<rect fill="burlywood" height="43.17460317460318" stroke="black" width="2.400000000001981" x="50.39999999999969" y="-43.17460317460318"/>
<rect fill="burlywood" height="178.0952380952381" stroke="black" width="2.3999999999981725" x="52.800000000001674" y="-178.0952380952381"/>
<rect fill="burlywood" height="91.74603174603175" stroke="black" width="2.400000000001981" x="55.19999999999985" y="-91.74603174603175"/>
<rect fill="burlywood" height="16.19047619047619" stroke="black" width="2.3999999999981725" x="57.60000000000183" y="-16.19047619047619"/>
<rect fill="burlywood" height="97.14285714285714" stroke="black" width="2.3999999999981725" x="60" y="-97.14285714285714"/>
<rect fill="burlywood" height="0" stroke="black" width="2.400000000001981" x="62.39999999999817" y="0"/>
<rect fill="burlywood" height="53.96825396825397" stroke="black" width="2.3999999999981725" x="64.80000000000015" y="-53.96825396825397"/>
<rect fill="burlywood" height="16.19047619047619" stroke="black" width="2.400000000001981" x="67.19999999999833" y="-16.19047619047619"/>
<rect fill="burlywood" height="75.55555555555556" stroke="black" width="2.3999999999981725" x="69.6000000000003" y="-75.55555555555556"/>
<rect fill="burlywood" height="10.793650793650794" stroke="black" width="2.400000000001981" x="71.99999999999848" y="-10.793650793650794"/>
<rect fill="burlywood" height="5.396825396825397" stroke="black" width="2.3999999999981725" x="74.40000000000046" y="-5.396825396825397"/>
<rect fill="burlywood" height="48.57142857142857" stroke="black" width="2.400000000001981" x="76.79999999999863" y="-48.57142857142857"/>
<rect fill="burlywood" height="64.76190476190476" stroke="black" width="2.3999999999981725" x="79.20000000000061" y="-64.76190476190476"/>
<rect fill="burlywood" height="0" stroke="black" width="2.400000000001981" x="81.59999999999879" y="0"/>
<rect fill="burlywood" height="43.17460317460318" stroke="black" width="2.3999999999981725" x="84.00000000000077" y="-43.17460317460318"/>
<rect fill="burlywood" height="26.984126984126984" stroke="black" width="2.400000000001967" x="86.39999999999894" y="-26.984126984126984"/>
<rect fill="burlywood" height="97.14285714285714" stroke="black" width="2.3999999999981867" x="88.8000000000009" y="-97.14285714285714"/>
<rect fill="burlywood" height="75.55555555555556" stroke="black" width="2.400000000001967" x="91.1999999999991" y="-75.55555555555556"/>
<rect fill="burlywood" height="21.58730158730159" stroke="black" width="2.3999999999981725" x="93.60000000000106" y="-21.58730158730159"/>
<rect fill="burlywood" height="26.984126984126984" stroke="black" width="2.400000000001981" x="95.99999999999923" y="-26.984126984126984"/>
<rect fill="burlywood" height="70.15873015873017" stroke="black" width="2.3999999999981725" x="98.40000000000121" y="-70.15873015873017"/>
<rect fill="burlywood" height="64.76190476190476" stroke="black" width="2.400000000001981" x="100.79999999999939" y="-64.76190476190476"/>
<rect fill="burlywood" height="64.76190476190476" stroke="black" width="2.3999999999981725" x="103.20000000000137" y="-64.76190476190476"/>
<rect fill="burlywood" height="59.36507936507937" stroke="black" width="2.400000000001981" x="105.59999999999954" y="-59.36507936507937"/>
<rect fill="burlywood" height="5.396825396825397" stroke="black" width="2.3999999999981725" x="108.00000000000152" y="-5.396825396825397"/>
<rect fill="burlywood" height="5.396825396825397" stroke="black" width="2.400000000001981" x="110.3999999999997" y="-5.396825396825397"/>
<rect fill="burlywood" height="53.96825396825397" stroke="black" width="2.3999999999981725" x="112.80000000000167" y="-53.96825396825397"/>
<rect fill="burlywood" height="16.19047619047619" stroke="black" width="2.400000000001981" x="115.19999999999985" y="-16.19047619047619"/>
<rect fill="burlywood" height="0" stroke="black" width="2.3999999999981725" x="117.60000000000183" y="0"/>
<rect fill="burlywood" height="0" stroke="black" width="2.3999999999981725" x="120" y="0"/>
<rect fill="burlywood" height="80.95238095238095" stroke="black" width="2.400000000001981" x="122.39999999999817" y="-80.95238095238095"/>
<rect fill="burlywood" height="10.793650793650794" stroke="black" width="2.3999999999981725" x="124.80000000000015" y="-10.793650793650794"/>
<rect fill="burlywood" height="0" stroke="black" width="2.400000000001981" x="127.19999999999833" y="0"/>
<rect fill="burlywood" height="5.396825396825397" stroke="black" width="2.3999999999981583" x="129.6000000000003" y="-5.396825396825397"/>
<rect fill="burlywood" height="5.396825396825397" stroke="black" width="2.400000000001995" x="131.99999999999847" y="-5.396825396825397"/>
<rect fill="burlywood" height="5.396825396825397" stroke="black" width="2.3999999999981583" x="134.40000000000046" y="-5.396825396825397"/>
<rect fill="burlywood" height="10.793650793650794" stroke="black" width="2.400000000001995" x="136.79999999999862" y="-10.793650793650794"/>
<rect fill="burlywood" height="21.58730158730159" stroke="black" width="2.3999999999981583" x="139.2000000000006" y="-21.58730158730159"/>
<rect fill="burlywood" height="0" stroke="black" width="2.400000000001995" x="141.59999999999877" y="0"/>
<rect fill="burlywood" height="0" stroke="black" width="2.3999999999981583" x="144.00000000000077" y="0"/>
<rect fill="burlywood" height="10.793650793650794" stroke="black" width="2.400000000001995" x="146.39999999999893" y="-10.793650793650794"/>
<rect fill="burlywood" height="10.793650793650794" stroke="black" width="2.3999999999981583" x="148.80000000000092" y="-10.793650793650794"/>
<rect fill="burlywood" height="0" stroke="black" width="2.400000000001995" x="151.19999999999908" y="0"/>
<rect fill="burlywood" height="0" stroke="black" width="2.3999999999981583" x="153.60000000000107" y="0"/>
<rect fill="burlywood" height="0" stroke="black" width="2.400000000001995" x="155.99999999999923" y="0"/>
<rect fill="burlywood" height="0" stroke="black" width="2.3999999999981583" x="158.40000000000123" y="0"/>
<rect fill="burlywood" height="5.396825396825397" stroke="black" width="2.400000000001995" x="160.7999999999994" y="-5.396825396825397"/>
<rect fill="burlywood" height="0" stroke="black" width="2.3999999999981583" x="163.20000000000138" y="0"/>
<rect fill="burlywood" height="5.396825396825397" stroke="black" width="2.400000000001995" x="165.59999999999954" y="-5.396825396825397"/>
<rect fill="burlywood" height="32.38095238095238" stroke="black" width="2.3999999999981583" x="168.00000000000153" y="-32.38095238095238"/>
<rect fill="burlywood" height="43.17460317460318" stroke="black" width="2.400000000001967" x="170.3999999999997" y="-43.17460317460318"/>
<rect fill="burlywood" height="0" stroke="black" width="2.3999999999981867" x="172.80000000000166" y="0"/>
<rect fill="burlywood" height="21.58730158730159" stroke="black" width="2.400000000001967" x="175.19999999999985" y="-21.58730158730159"/>
<rect fill="burlywood" height="86.34920634920636" stroke="black" width="2.3999999999981867" x="177.6000000000018" y="-86.34920634920636"/>
<rect fill="burlywood" height="0" stroke="black" width="2.3999999999981867" x="180" y="0"/>
<rect fill="burlywood" height="0" stroke="black" width="2.400000000001967" x="182.3999999999982" y="0"/>
<rect fill="burlywood" height="16.19047619047619" stroke="black" width="2.3999999999981867" x="184.80000000000015" y="-16.19047619047619"/>
<rect fill="burlywood" height="5.396825396825397" stroke="black" width="2.400000000001967" x="187.19999999999834" y="-5.396825396825397"/>
<rect fill="burlywood" height="0" stroke="black" width="2.3999999999981583" x="189.6000000000003" y="0"/>
<rect fill="burlywood" height="0" stroke="black" width="2.400000000001995" x="191.99999999999847" y="0"/>
<rect fill="burlywood" height="16.19047619047619" stroke="black" width="2.3999999999981583" x="194.40000000000046" y="-16.19047619047619"/>
<rect fill="burlywood" height="10.793650793650794" stroke="black" width="2.400000000001995" x="196.79999999999862" y="-10.793650793650794"/>
<rect fill="burlywood" height="0" stroke="black" width="2.3999999999981583" x="199.2000000000006" y="0"/>
<rect fill="burlywood" height="0" stroke="black" width="2.400000000001995" x="201.59999999999877" y="0"/>
<rect fill="burlywood" height="5.396825396825397" stroke="black" width="2.3999999999981583" x="204.00000000000077" y="-5.396825396825397"/>
<rect fill="burlywood" height="37.77777777777778" stroke="black" width="2.400000000001995" x="206.39999999999893" y="-37.77777777777778"/>
<rect fill="burlywood" height="0" stroke="black" width="2.3999999999981583" x="208.80000000000092" y="0"/>
<rect fill="burlywood" height="10.793650793650794" stroke="black" width="2.400000000001995" x="211.19999999999908" y="-10.793650793650794"/>
<rect fill="burlywood" height="70.15873015873017" stroke="black" width="2.3999999999981583" x="213.60000000000107" y="-70.15873015873017"/>
<rect fill="burlywood" height="10.793650793650794" stroke="black" width="2.400000000001995" x="215.99999999999923" y="-10.793650793650794"/>
<rect fill="burlywood" height="0" stroke="black" width="2.3999999999981583" x="218.40000000000123" y="0"/>
<rect fill="burlywood" height="0" stroke="black" width="2.400000000001995" x="220.7999999999994" y="0"/>
<rect fill="burlywood" height="80.95238095238095" stroke="black" width="2.3999999999981583" x="223.20000000000138" y="-80.95238095238095"/>
<rect fill="burlywood" height="26.984126984126984" stroke="black" width="2.400000000001995" x="225.59999999999954" y="-26.984126984126984"/>
<rect fill="burlywood" height="10.793650793650794" stroke="black" width="2.3999999999981583" x="228.00000000000153" y="-10.793650793650794"/>
<rect fill="burlywood" height="0" stroke="black" width="2.400000000001967" x="230.3999999999997" y="0"/>
<rect fill="burlywood" height="0" stroke="black" width="2.3999999999981867" x="232.80000000000166" y="0"/>
<rect fill="burlywood" height="32.38095238095238" stroke="black" width="2.400000000001967" x="235.19999999999985" y="-32.38095238095238"/>
<rect fill="burlywood" height="0" stroke="black" width="2.3999999999981867" x="237.6000000000018" y="0"/>
<rect fill="burlywood" height="5.396825396825397" stroke="black" width="2.3999999999981867" x="240" y="-5.396825396825397"/>
<rect fill="burlywood" height="161.9047619047619" stroke="black" width="2.400000000001967" x="242.3999999999982" y="-161.9047619047619"/>
<rect fill="burlywood" height="0" stroke="black" width="2.3999999999981867" x="244.80000000000015" y="0"/>
<rect fill="burlywood" height="10.793650793650794" stroke="black" width="2.400000000001967" x="247.19999999999834" y="-10.793650793650794"/>
<rect fill="burlywood" height="21.58730158730159" stroke="black" width="2.3999999999981583" x="249.6000000000003" y="-21.58730158730159"/>
<rect fill="burlywood" height="5.396825396825397" stroke="black" width="2.400000000001995" x="251.99999999999847" y="-5.396825396825397"/>
<rect fill="burlywood" height="0" stroke="black" width="2.3999999999981867" x="254.40000000000046" y="0"/>
<rect fill="burlywood" height="0" stroke="black" width="2.400000000001967" x="256.79999999999865" y="0"/>
<rect fill="burlywood" height="0" stroke="black" width="2.3999999999981583" x="259.2000000000006" y="0"/>
<rect fill="burlywood" height="0" stroke="black" width="2.400000000001967" x="261.5999999999988" y="0"/>
<rect fill="burlywood" height="5.396825396825397" stroke="black" width="2.399999999998215" x="264.00000000000074" y="-5.396825396825397"/>
<rect fill="burlywood" height="0" stroke="black" width="2.400000000001967" x="266.39999999999895" y="0"/>
<rect fill="burlywood" height="10.793650793650794" stroke="black" width="2.3999999999981583" x="268.8000000000009" y="-10.793650793650794"/>
<rect fill="burlywood" height="16.19047619047619" stroke="black" width="2.400000000001967" x="271.1999999999991" y="-16.19047619047619"/>
<rect fill="burlywood" height="21.58730158730159" stroke="black" width="2.399999999998215" x="273.60000000000105" y="-21.58730158730159"/>
<rect fill="burlywood" height="48.57142857142857" stroke="black" width="2.400000000001967" x="275.99999999999926" y="-48.57142857142857"/>
<rect fill="burlywood" height="0" stroke="black" width="2.3999999999981583" x="278.4000000000012" y="0"/>
<rect fill="burlywood" height="0" stroke="black" width="2.400000000001967" x="280.7999999999994" y="0"/>
<rect fill="burlywood" height="0" stroke="black" width="2.399999999998215" x="283.20000000000135" y="0"/>
<rect fill="burlywood" height="16.19047619047619" stroke="black" width="2.400000000001967" x="285.59999999999957" y="-16.19047619047619"/>
<rect fill="burlywood" height="0" stroke="black" width="2.3999999999981583" x="288.00000000000153" y="0"/>
<rect fill="burlywood" height="21.58730158730159" stroke="black" width="2.400000000001967" x="290.3999999999997" y="-21.58730158730159"/>
<rect fill="burlywood" height="70.15873015873017" stroke="black" width="2.399999999998215" x="292.80000000000166" y="-70.15873015873017"/>
<rect fill="burlywood" height="64.76190476190476" stroke="black" width="2.400000000001967" x="295.1999999999999" y="-64.76190476190476"/>
<rect fill="burlywood" height="32.38095238095238" stroke="black" width="2.3999999999981583" x="297.60000000000184" y="-32.38095238095238"/>
<rect fill="burlywood" height="21.58730158730159" stroke="black" width="2.3999999999981583" x="300" y="-21.58730158730159"/>
<rect fill="burlywood" height="64.76190476190476" stroke="black" width="2.400000000001967" x="302.39999999999816" y="-64.76190476190476"/>
<rect fill="burlywood" height="43.17460317460318" stroke="black" width="2.399999999998215" x="304.8000000000001" y="-43.17460317460318"/>
<rect fill="burlywood" height="0" stroke="black" width="2.400000000001967" x="307.19999999999834" y="0"/>
<rect fill="burlywood" height="0" stroke="black" width="2.3999999999981583" x="309.6000000000003" y="0"/>
<rect fill="burlywood" height="0" stroke="black" width="2.400000000001967" x="311.99999999999847" y="0"/>
<rect fill="burlywood" height="0" stroke="black" width="2.399999999998215" x="314.40000000000043" y="0"/>
<rect fill="burlywood" height="0" stroke="black" width="2.400000000001967" x="316.79999999999865" y="0"/>
<rect fill="burlywood" height="26.984126984126984" stroke="black" width="2.3999999999981583" x="319.2000000000006" y="-26.984126984126984"/>
<rect fill="burlywood" height="0" stroke="black" width="2.400000000001967" x="321.5999999999988" y="0"/>
<rect fill="burlywood" height="21.58730158730159" stroke="black" width="2.399999999998215" x="324.00000000000074" y="-21.58730158730159"/>
<rect fill="burlywood" height="0" stroke="black" width="2.400000000001967" x="326.39999999999895" y="0"/>
<rect fill="burlywood" height="16.19047619047619" stroke="black" width="2.3999999999981583" x="328.8000000000009" y="-16.19047619047619"/>
<rect fill="burlywood" height="5.396825396825397" stroke="black" width="2.400000000001967" x="331.1999999999991" y="-5.396825396825397"/>
<rect fill="burlywood" height="26.984126984126984" stroke="black" width="2.399999999998215" x="333.60000000000105" y="-26.984126984126984"/>
<rect fill="burlywood" height="0" stroke="black" width="2.400000000001967" x="335.99999999999926" y="0"/>
<rect fill="burlywood" height="5.396825396825397" stroke="black" width="2.3999999999981583" x="338.4000000000012" y="-5.396825396825397"/>
<rect fill="burlywood" height="21.58730158730159" stroke="black" width="2.400000000001967" x="340.7999999999994" y="-21.58730158730159"/>
<rect fill="burlywood" height="0" stroke="black" width="2.399999999998215" x="343.20000000000135" y="0"/>
<rect fill="burlywood" height="183.4920634920635" stroke="black" width="2.400000000001967" x="345.59999999999957" y="-183.4920634920635"/>
<rect fill="burlywood" height="5.396825396825397" stroke="black" width="2.3999999999981583" x="348.00000000000153" y="-5.396825396825397"/>
<rect fill="burlywood" height="0" stroke="black" width="2.400000000001967" x="350.3999999999997" y="0"/>
<rect fill="burlywood" height="0" stroke="black" width="2.399999999998215" x="352.80000000000166" y="0"/>
<rect fill="burlywood" height="0" stroke="black" width="2.400000000001967" x="355.1999999999999" y="0"/>
<rect fill="burlywood" height="0" stroke="black" width="2.3999999999981583" x="357.60000000000184" y="0"/>
<rect fill="burlywood" height="0" stroke="black" width="2.3999999999981583" x="360" y="0"/>
<rect fill="burlywood" height="37.77777777777778" stroke="black" width="2.400000000001967" x="362.39999999999816" y="-37.77777777777778"/>
<rect fill="burlywood" height="0" stroke="black" width="2.399999999998215" x="364.8000000000001" y="0"/>
<rect fill="burlywood" height="59.36507936507937" stroke="black" width="2.400000000001967" x="367.19999999999834" y="-59.36507936507937"/>
<rect fill="burlywood" height="0" stroke="black" width="2.3999999999981583" x="369.6000000000003" y="0"/>
<rect fill="burlywood" height="0" stroke="black" width="2.400000000001967" x="371.99999999999847" y="0"/>
<rect fill="burlywood" height="5.396825396825397" stroke="black" width="2.399999999998215" x="374.40000000000043" y="-5.396825396825397"/>
<rect fill="burlywood" height="5.396825396825397" stroke="black" width="2.400000000001967" x="376.79999999999865" y="-5.396825396825397"/>
<rect fill="burlywood" height="10.793650793650794" stroke="black" width="2.3999999999981583" x="379.2000000000006" y="-10.793650793650794"/>
<rect fill="burlywood" height="0" stroke="black" width="2.400000000001967" x="381.5999999999988" y="0"/>
<rect fill="burlywood" height="0" stroke="black" width="2.399999999998215" x="384.00000000000074" y="0"/>
<rect fill="burlywood" height="0" stroke="black" width="2.400000000001967" x="386.39999999999895" y="0"/>
<rect fill="burlywood" height="0" stroke="black" width="2.3999999999981583" x="388.8000000000009" y="0"/>
<rect fill="burlywood" height="0" stroke="black" width="2.400000000001967" x="391.1999999999991" y="0"/>
<rect fill="burlywood" height="161.9047619047619" stroke="black" width="2.399999999998215" x="393.60000000000105" y="-161.9047619047619"/>
<rect fill="burlywood" height="10.793650793650794" stroke="black" width="2.400000000001967" x="395.99999999999926" y="-10.793650793650794"/>
<rect fill="burlywood" height="0" stroke="black" width="2.3999999999981583" x="398.4000000000012" y="0"/>
<rect fill="burlywood" height="205.0793650793651" stroke="black" width="2.400000000001967" x="400.7999999999994" y="-205.0793650793651"/>
<rect fill="burlywood" height="32.38095238095238" stroke="black" width="2.399999999998215" x="403.20000000000135" y="-32.38095238095238"/>
<rect fill="burlywood" height="0" stroke="black" width="2.400000000001967" x="405.59999999999957" y="0"/>
<rect fill="burlywood" height="0" stroke="black" width="2.3999999999981583" x="408.00000000000153" y="0"/>
<rect fill="burlywood" height="37.77777777777778" stroke="black" width="2.400000000001967" x="410.3999999999997" y="-37.77777777777778"/>
<rect fill="burlywood" height="37.77777777777778" stroke="black" width="2.399999999998215" x="412.80000000000166" y="-37.77777777777778"/>
<rect fill="burlywood" height="0" stroke="black" width="2.400000000001967" x="415.1999999999999" y="0"/>
<rect fill="burlywood" height="0" stroke="black" width="2.3999999999981583" x="417.60000000000184" y="0"/>
<rect fill="burlywood" height="10.793650793650794" stroke="black" width="2.3999999999981583" x="420" y="-10.793650793650794"/>
<rect fill="burlywood" height="86.34920634920636" stroke="black" width="2.400000000001967" x="422.39999999999816" y="-86.34920634920636"/>
<rect fill="burlywood" height="0" stroke="black" width="2.399999999998215" x="424.8000000000001" y="0"/>
<rect fill="burlywood" height="340" stroke="black" width="2.400000000001967" x="427.19999999999834" y="-340"/>
<rect fill="burlywood" height="124.12698412698413" stroke="black" width="2.3999999999981583" x="429.6000000000003" y="-124.12698412698413"/>
<rect fill="burlywood" height="86.34920634920636" stroke="black" width="2.400000000001967" x="431.99999999999847" y="-86.34920634920636"/>
<rect fill="burlywood" height="0" stroke="black" width="2.399999999998215" x="434.40000000000043" y="0"/>
<rect fill="burlywood" height="0" stroke="black" width="2.400000000001967" x="436.79999999999865" y="0"/>
<rect fill="burlywood" height="0" stroke="black" width="2.3999999999981583" x="439.2000000000006" y="0"/>
<rect fill="burlywood" height="0" stroke="black" width="2.400000000001967" x="441.5999999999988" y="0"/>
<rect fill="burlywood" height="10.793650793650794" stroke="black" width="2.399999999998215" x="444.00000000000074" y="-10.793650793650794"/>
<rect fill="burlywood" height="0" stroke="black" width="2.400000000001967" x="446.39999999999895" y="0"/>
<rect fill="burlywood" height="0" stroke="black" width="2.3999999999981583" x="448.8000000000009" y="0"/>
<rect fill="burlywood" height="10.793650793650794" stroke="black" width="2.400000000001967" x="451.1999999999991" y="-10.793650793650794"/>
<rect fill="burlywood" height="32.38095238095238" stroke="black" width="2.399999999998215" x="453.60000000000105" y="-32.38095238095238"/>
<rect fill="burlywood" height="0" stroke="black" width="2.400000000001967" x="455.99999999999926" y="0"/>
<rect fill="burlywood" height="43.17460317460318" stroke="black" width="2.3999999999981583" x="458.4000000000012" y="-43.17460317460318"/>
<rect fill="burlywood" height="0" stroke="black" width="2.400000000001967" x="460.7999999999994" y="0"/>
<rect fill="burlywood" height="0" stroke="black" width="2.399999999998215" x="463.20000000000135" y="0"/>
<rect fill="burlywood" height="199.68253968253967" stroke="black" width="2.400000000001967" x="465.59999999999957" y="-199.68253968253967"/>
<rect fill="burlywood" height="64.76190476190476" stroke="black" width="2.3999999999981583" x="468.00000000000153" y="-64.76190476190476"/>
<rect fill="burlywood" height="221.26984126984127" stroke="black" width="2.400000000001967" x="470.3999999999997" y="-221.26984126984127"/>
<rect fill="burlywood" height="32.38095238095238" stroke="black" width="2.399999999998215" x="472.80000000000166" y="-32.38095238095238"/>
<rect fill="burlywood" height="5.396825396825397" stroke="black" width="2.400000000001967" x="475.1999999999999" y="-5.396825396825397"/>
<rect fill="burlywood" height="86.34920634920636" stroke="black" width="2.3999999999981583" x="477.60000000000184" y="-86.34920634920636"/>
</g>
<g>
<g>
<line stroke="black" stroke-width="1" x1="0" x2="0" y1="0" y2="10"/>
<line stroke="black" stroke-width="1" x1="159.55511247987238" x2="159.55511247987238" y1="0" y2="10"/>
<line stroke="black" stroke-width="1" x1="319.11022495974476" x2="319.11022495974476" y1="0" y2="10"/>
<line stroke="black" stroke-width="1" x1="478.66533743961713" x2="478.66533743961713" y1="0" y2="10"/>
</g>
<line stroke="black" stroke-width="1" x1="0" x2="480" y1="0" y2="0"/>
<g>
<text font-size="12" text-anchor="middle" x="0" y="20">
1544725862
</text>
<text font-size="12" text-anchor="middle" x="159.55511247987238" y="20">
1554725862
</text>
<text font-size="12" text-anchor="middle" x="319.11022495974476" y="20">
1564725862
</text>
<text font-size="12" text-anchor="middle" x="478.66533743961713" y="20">
1574725862
</text>
</g>
<text font-size="12" text-anchor="middle" x="240" y="30">
date (epoch time)
</text>
</g>
<g>
<g>
<line stroke="black" stroke-width="1" x1="0" x2="-10" y1="0" y2="0"/>
<line stroke="black" stroke-width="1" x1="0" x2="-10" y1="-107.93650793650794" y2="-107.93650793650794"/>
<line stroke="black" stroke-width="1" x1="0" x2="-10" y1="-215.87301587301587" y2="-215.87301587301587"/>
<line stroke="black" stroke-width="1" x1="0" x2="-10" y1="-323.8095238095238" y2="-323.8095238095238"/>
</g>
<line stroke="black" stroke-width="1" x1="0" x2="0" y1="0" y2="-340"/>
<g>
<text dominant-baseline="middle" font-size="12" text-anchor="end" x="-15" y="0">
0
</text>
<text dominant-baseline="middle" font-size="12" text-anchor="end" x="-15" y="-107.93650793650794">
20
</text>
<text dominant-baseline="middle" font-size="12" text-anchor="end" x="-15" y="-215.87301587301587">
40
</text>
<text dominant-baseline="middle" font-size="12" text-anchor="end" x="-15" y="-323.8095238095238">
60
</text>
</g>
<text font-size="12" text-anchor="middle" transform="rotate(-90 -24 -170)" x="-24" y="-182">
count
</text>
</g>
</g>
</svg>